<?xml version="1.0" encoding="utf-8"?>
<svg version="1.1" xmlns:xlink="http://www.w3.org/1999/xlink" width="27px" height="27px" xmlns="http://www.w3.org/2000/svg">
  <g transform="matrix(1 0 0 1 -220 -1268 )">
    <path d="M 15.6770736769912 26.6569563130435  C 15.0297373573009 26.752872873913  14.3772634811946 26.7983070358696  13.7299271913716 26.7983070358696  C 10.8271890896018 26.7983070358696  8.0169275707965 25.8845755597826  5.65363635730091 24.1429326945652  C 2.76631101438056 22.0226718228261  0.8910908263274 18.9129558326087  0.377331839601766 15.3993806804348  C -0.136427147123868 11.8858055282608  0.772926252212415 8.38737502826086  2.93585145132738 5.55026403913041  C 7.41069200110621 -0.315791090217374  15.8979900066372 -1.50717577500001  21.8627315044248 2.87974495760869  C 24.3647376371681 4.72235262065215  26.1474812123894 7.37267872500001  26.8872941150443 10.3511404663043  C 27.0157338617257 10.8610127217391  26.6972033030974 11.3759332141304  26.1783067599557 11.4970909891304  C 25.6594102168142 11.6182487641304  25.1353760873894 11.3103061043478  25.0120739269912 10.800433848913  C 24.3801503960177 8.25107254239128  22.8491486980089 5.97431620760869  20.7067738440265 4.39421704239129  C 15.5948722068584 0.638326310869559  8.31490778429202 1.66311905869566  4.48740355420352 6.68611805869563  C 2.63273371128321 9.1193698271739  1.85182008849563 12.1180245163043  2.29365280752211 15.1267756793478  C 2.7354855265487 18.1355268423913  4.33841346238933 20.8009976576087  6.81473163384953 22.6234123728261  C 11.9317708573009 26.389399548913  19.2065977234513 25.3646068010869  23.039239539823 20.3365595641304  C 24.0410695221238 19.0189688673913  24.7295065022124 17.5448827369565  25.0788626084071 15.9546870684783  C 25.1918895663716 15.4448148130435  25.7107861393805 15.1166792054348  26.2245450962389 15.2277404771739  C 26.7434416393805 15.3388017489131  27.0773849568584 15.8436257673913  26.9643579988938 16.3534980521739  C 26.5533508274336 18.2162986923913  25.7518868595133 19.9377485804348  24.5805164402655 21.4724136130435  C 22.4175912112831 24.3095246021739  19.2528360298672 26.1521322652174  15.6770736769912 26.6569563130435  Z " fill-rule="nonzero" fill="#1088e9" stroke="none" transform="matrix(1 0 0 1 220 1268 )" />
  </g>
</svg>