<?xml version="1.0" encoding="utf-8"?>
<svg version="1.1" xmlns:xlink="http://www.w3.org/1999/xlink" width="280px" height="133px" xmlns="http://www.w3.org/2000/svg">
  <defs>
    <filter x="1101px" y="7px" width="280px" height="133px" filterUnits="userSpaceOnUse" id="filter56">
      <feOffset dx="1" dy="1" in="SourceAlpha" result="shadowOffsetInner" />
      <feGaussianBlur stdDeviation="2.5" in="shadowOffsetInner" result="shadowGaussian" />
      <feComposite in2="shadowGaussian" operator="atop" in="SourceAlpha" result="shadowComposite" />
      <feColorMatrix type="matrix" values="0 0 0 0 0.525490196078431  0 0 0 0 0.525490196078431  0 0 0 0 0.525490196078431  0 0 0 0.349019607843137 0  " in="shadowComposite" />
    </filter>
    <g id="widget57">
      <path d="M 1105 119.814814814815  C 1105 119.814814814815  1105 17  1105 17  C 1105 13.6862915010152  1107.68629150102 11  1111 11  C 1111 11  1369 11  1369 11  C 1372.31370849898 11  1375 13.6862915010152  1375 17  C 1375 17  1375 119.814814814815  1375 119.814814814815  C 1375 123.1285233138  1372.31370849898 125.814814814815  1369 125.814814814815  C 1369 125.814814814815  1145.4 125.814814814815  1145.4 125.814814814815  C 1145.4 125.814814814815  1134.7 134  1134.7 134  C 1134.7 134  1125.4 125.814814814815  1125.4 125.814814814815  C 1125.4 125.814814814815  1111 125.814814814815  1111 125.814814814815  C 1107.68629150102 125.814814814815  1105 123.1285233138  1105 119.814814814815  Z " fill-rule="nonzero" fill="#ffffff" stroke="none" />
    </g>
  </defs>
  <g transform="matrix(1 0 0 1 -1101 -7 )">
    <use xlink:href="#widget57" filter="url(#filter56)" />
    <use xlink:href="#widget57" />
  </g>
</svg>